<?xml version="1.0" encoding="utf-8"?>
<!-- Generator: Adobe Illustrator 15.0.2, SVG Export Plug-In . SVG Version: 6.00 Build 0)  -->
<!DOCTYPE svg PUBLIC "-//W3C//DTD SVG 1.1//EN" "http://www.w3.org/Graphics/SVG/1.1/DTD/svg11.dtd">
<svg version="1.1" id="Layer_1" xmlns="http://www.w3.org/2000/svg" xmlns:xlink="http://www.w3.org/1999/xlink" x="0px" y="0px"
	 width="36.497px" height="37.989px" viewBox="301.419 461.005 36.497 37.989"
	 enable-background="new 301.419 461.005 36.497 37.989" xml:space="preserve">
<path fill="#FFFF14" d="M319.746,480l18.17,7.395c0,0-2.354,4.318-4.071,6.036c-1.719,1.72-3.765,3.11-6.038,4.071
	c-2.271,0.961-4.771,1.492-7.393,1.492s-5.121-0.531-7.393-1.492c-2.272-0.961-4.319-2.353-6.038-4.071
	c-1.719-1.718-3.109-3.765-4.071-6.036c-0.961-2.272-1.493-4.771-1.493-7.395s0.532-5.121,1.493-7.395
	c0.961-2.271,2.352-4.318,4.071-6.036c1.719-1.72,3.765-3.11,6.038-4.071c2.272-0.961,4.771-1.493,7.393-1.493
	s5.122,0.532,7.393,1.493c2.273,0.961,4.319,2.352,6.038,4.071c1.72,1.718,4.071,6.036,4.071,6.036L319.746,480z"/>
</svg>
