<?xml version="1.0" encoding="utf-8"?>
<!-- Generator: Adobe Illustrator 15.0.2, SVG Export Plug-In . SVG Version: 6.00 Build 0)  -->
<!DOCTYPE svg PUBLIC "-//W3C//DTD SVG 1.1//EN" "http://www.w3.org/Graphics/SVG/1.1/DTD/svg11.dtd">
<svg version="1.1" id="Layer_1" xmlns="http://www.w3.org/2000/svg" xmlns:xlink="http://www.w3.org/1999/xlink" x="0px" y="0px"
	 width="35px" height="38.542px" viewBox="4.375 0 35 38.542" enable-background="new 4.375 0 35 38.542" xml:space="preserve">
<path fill="#FF4C3F" d="M39.375,17.5c0-9.665-7.835-17.5-17.5-17.5c-9.664,0-17.5,7.835-17.5,17.5c0,0.192,0.022,0.378,0.029,0.569
	H4.375v20.455c0.104,0.01,0.211,0.018,0.341,0.018c0.776,0,1.127-0.13,1.571-0.294c0.514-0.19,1.094-0.405,2.207-0.405
	s1.694,0.215,2.208,0.404c0.446,0.165,0.797,0.295,1.576,0.295c0.777,0,1.13-0.13,1.575-0.295c0.514-0.189,1.095-0.404,2.209-0.404
	c1.245,0,1.9,0.208,2.479,0.393c0.517,0.164,0.965,0.307,1.915,0.307c0.955,0,1.402-0.143,1.921-0.308
	c0.58-0.184,1.234-0.392,2.481-0.392s1.902,0.208,2.481,0.393c0.519,0.164,0.966,0.307,1.92,0.307c1.049,0,1.54-0.145,2.108-0.312
	c0.615-0.182,1.312-0.387,2.634-0.387c1.324,0,2.021,0.205,2.637,0.387c0.568,0.168,1.062,0.312,2.111,0.312
	c0.237,0,0.438-0.01,0.625-0.022v-20.45h-0.029C39.352,17.878,39.375,17.692,39.375,17.5z M15.544,15.841c-1.988,0-3.6-1.61-3.6-3.6
	s1.609-3.6,3.6-3.6s3.6,1.61,3.6,3.6S17.533,15.841,15.544,15.841z M28.555,15.841c-1.988,0-3.6-1.61-3.6-3.6s1.609-3.6,3.6-3.6
	s3.6,1.61,3.6,3.6S30.543,15.841,28.555,15.841z"/>
</svg>
