<?xml version="1.0" encoding="utf-8"?>
<!-- Generator: Adobe Illustrator 15.1.0, SVG Export Plug-In . SVG Version: 6.00 Build 0)  -->
<svg version="1.2" baseProfile="tiny" xmlns="http://www.w3.org/2000/svg" xmlns:xlink="http://www.w3.org/1999/xlink" x="0px"
	 y="0px" width="900px" height="600px" viewBox="0 0 900 600" overflow="inherit" xml:space="preserve">
<g id="Layer_1">
	<g>
		<path fill="#0000FF" d="M166,163c0,8.284-6.716,15-15,15H72c-8.284,0-15-6.716-15-15V76c0-8.284,6.716-15,15-15h79
			c8.284,0,15,6.716,15,15V163z"/>
		<path fill="#FFFFFF" d="M150,63c7.168,0,13,5.832,13,13v86.5c0,7.168-5.332,13.5-12.5,13.5H72c-7.168,0-13-6.332-13-13.5V76
			c0-7.168,5.832-13,13-13H150 M150.5,59H72c-9.389,0-17,7.611-17,17v86.5c0,9.389,7.611,17.5,17,17.5h78.5
			c9.389,0,16.5-8.111,16.5-17.5V76c0-9.389-7.361-17-16.75-17H150.5z"/>
	</g>
	<g>
		<path fill="#0000FF" d="M505,163c0,8.284-6.716,15-15,15h-79c-8.284,0-15-6.716-15-15V76c0-8.284,6.716-15,15-15h79
			c8.284,0,15,6.716,15,15V163z"/>
		<path fill="#FFFFFF" d="M489,63c7.168,0,13,5.832,13,13v86.5c0,7.168-5.332,13.5-12.5,13.5H411c-7.168,0-13-6.332-13-13.5V76
			c0-7.168,5.832-13,13-13H489 M489.5,59H411c-9.389,0-17,7.611-17,17v86.5c0,9.389,7.611,17.5,17,17.5h78.5
			c9.389,0,16.5-8.111,16.5-17.5V76c0-9.389-7.361-17-16.75-17H489.5z"/>
	</g>
	<g>
		<path fill="#0000FF" d="M672,163c0,8.284-6.716,15-15,15h-79c-8.284,0-15-6.716-15-15V76c0-8.284,6.716-15,15-15h79
			c8.284,0,15,6.716,15,15V163z"/>
		<path fill="#FFFFFF" d="M656,63c7.168,0,13,5.832,13,13v86.5c0,7.168-5.332,13.5-12.5,13.5H578c-7.168,0-13-6.332-13-13.5V76
			c0-7.168,5.832-13,13-13H656 M656.5,59H578c-9.389,0-17,7.611-17,17v86.5c0,9.389,7.611,17.5,17,17.5h78.5
			c9.389,0,16.5-8.111,16.5-17.5V76c0-9.389-7.361-17-16.75-17H656.5z"/>
	</g>
	<g>
		<path fill="#0000FF" d="M842,163c0,8.284-6.716,15-15,15h-79c-8.284,0-15-6.716-15-15V76c0-8.284,6.716-15,15-15h79
			c8.284,0,15,6.716,15,15V163z"/>
		<path fill="#FFFFFF" d="M826,63c7.168,0,13,5.832,13,13v86.5c0,7.168-5.332,13.5-12.5,13.5H748c-7.168,0-13-6.332-13-13.5V76
			c0-7.168,5.832-13,13-13H826 M826.5,59H748c-9.389,0-17,7.611-17,17v86.5c0,9.389,7.611,17.5,17,17.5h78.5
			c9.389,0,16.5-8.111,16.5-17.5V76c0-9.389-7.361-17-16.75-17H826.5z"/>
	</g>
	<g>
		<path fill="#0000FF" d="M842,344c0,8.284-6.716,15-15,15h-79c-8.284,0-15-6.716-15-15v-87c0-8.284,6.716-15,15-15h79
			c8.284,0,15,6.716,15,15V344z"/>
		<path fill="#FFFFFF" d="M826,244c7.168,0,13,5.832,13,13v86.5c0,7.168-5.332,13.5-12.5,13.5H748c-7.168,0-13-6.332-13-13.5V257
			c0-7.168,5.832-13,13-13H826 M826.5,240H748c-9.389,0-17,7.611-17,17v86.5c0,9.389,7.611,17.5,17,17.5h78.5
			c9.389,0,16.5-8.111,16.5-17.5V257c0-9.389-7.361-17-16.75-17H826.5z"/>
	</g>
	<g>
		<path fill="#0000FF" d="M505,524c0,8.284-6.716,15-15,15h-79c-8.284,0-15-6.716-15-15v-87c0-8.284,6.716-15,15-15h79
			c8.284,0,15,6.716,15,15V524z"/>
		<path fill="#FFFFFF" d="M489,424c7.168,0,13,5.832,13,13v86.5c0,7.168-5.332,13.5-12.5,13.5H411c-7.168,0-13-6.332-13-13.5V437
			c0-7.168,5.832-13,13-13H489 M489.5,420H411c-9.389,0-17,7.611-17,17v86.5c0,9.389,7.611,17.5,17,17.5h78.5
			c9.389,0,16.5-8.111,16.5-17.5V437c0-9.389-7.361-17-16.75-17H489.5z"/>
	</g>
	<g>
		<path fill="#0000FF" d="M335,524c0,8.284-6.716,15-15,15h-79c-8.284,0-15-6.716-15-15v-87c0-8.284,6.716-15,15-15h79
			c8.284,0,15,6.716,15,15V524z"/>
		<path fill="#FFFFFF" d="M319,424c7.168,0,13,5.832,13,13v86.5c0,7.168-5.332,13.5-12.5,13.5H241c-7.168,0-13-6.332-13-13.5V437
			c0-7.168,5.832-13,13-13H319 M319.5,420H241c-9.389,0-17,7.611-17,17v86.5c0,9.389,7.611,17.5,17,17.5h78.5
			c9.389,0,16.5-8.111,16.5-17.5V437c0-9.389-7.361-17-16.75-17H319.5z"/>
	</g>
	<g>
		<path fill="#0000FF" d="M674,344c0,8.284-6.716,15-15,15H411c-8.284,0-15-6.716-15-15v-87c0-8.284,6.716-15,15-15h248
			c8.284,0,15,6.716,15,15V344z"/>
		<path fill="#FFFFFF" d="M658,244c7.168,0,13,5.832,13,13v86.5c0,7.168-5.332,13.5-12.5,13.5H411c-7.168,0-13-6.332-13-13.5V257
			c0-7.168,5.832-13,13-13H658 M658.5,240H411c-9.389,0-17,7.611-17,17v86.5c0,9.389,7.611,17.5,17,17.5h247.5
			c9.389,0,16.5-8.111,16.5-17.5V257c0-9.389-7.361-17-16.75-17H658.5z"/>
	</g>
	<g>
		<path fill="#0000FF" d="M843,524c0,8.284-6.716,15-15,15H578c-8.284,0-15-6.716-15-15v-87c0-8.284,6.716-15,15-15h250
			c8.284,0,15,6.716,15,15V524z"/>
		<path fill="#FFFFFF" d="M827,424c7.168,0,13,5.832,13,13v86.5c0,7.168-5.332,13.5-12.5,13.5H578c-7.168,0-13-6.332-13-13.5V437
			c0-7.168,5.832-13,13-13H827 M827.5,420H578c-9.389,0-17,7.611-17,17v86.5c0,9.389,7.611,17.5,17,17.5h249.5
			c9.389,0,16.5-8.111,16.5-17.5V437c0-9.389-7.361-17-16.75-17H827.5z"/>
	</g>
	<g>
		<path fill="#0000FF" d="M336,344c0,8.284-6.716,15-15,15h-80c-8.284,0-15-6.716-15-15V76c0-8.284,6.716-15,15-15h80
			c8.284,0,15,6.716,15,15V344z"/>
		<path fill="#FFFFFF" d="M320.5,63c7.168,0,12.5,5.833,12.5,13.001v267.5c0,7.168-5.332,13.499-12.5,13.499H241
			c-7.168,0-13-6.331-13-13.499v-267.5C228,68.833,233.832,63,241,63h79 M320.5,59H241c-9.389,0-17,7.612-17,17.001v267.5
			c0,9.389,7.611,17.499,17,17.499h79.5c9.389,0,16.5-8.11,16.5-17.499v-267.5C337,66.612,329.889,59,320.5,59L320.5,59z"/>
	</g>
	<g>
		<path fill="#0000FF" d="M167,523c0,8.284-6.716,15-15,15H72c-8.284,0-15-6.716-15-15V257c0-8.284,6.716-15,15-15h80
			c8.284,0,15,6.716,15,15V523z"/>
		<path fill="#FFFFFF" d="M151.5,244c7.168,0,12.5,5.833,12.5,13.001V523.5c0,7.168-5.332,13.5-12.5,13.5H72
			c-7.168,0-13-6.332-13-13.5V257.001C59,249.833,64.832,244,72,244h79 M151.5,240H72c-9.389,0-17,7.612-17,17.001V523.5
			c0,9.389,7.611,17.5,17,17.5h79.5c9.389,0,16.5-8.111,16.5-17.5V257.001C168,247.612,160.889,240,151.5,240L151.5,240z"/>
	</g>
</g>
<g id="Layer_2" display="none">
	<rect x="-0.5" y="540.5" display="inline" fill="none" stroke="#FF0000" stroke-miterlimit="10" width="56" height="60"/>
	<rect x="-0.5" y="420.5" display="inline" fill="none" stroke="#FF0000" stroke-miterlimit="10" width="56" height="60"/>
	<rect x="-0.5" y="360.5" display="inline" fill="none" stroke="#FF0000" stroke-miterlimit="10" width="56" height="60"/>
	<rect x="-0.5" y="300.5" display="inline" fill="none" stroke="#FF0000" stroke-miterlimit="10" width="56" height="60"/>
	<rect x="-0.5" y="240.5" display="inline" fill="none" stroke="#FF0000" stroke-miterlimit="10" width="56" height="60"/>
	<rect x="-0.5" y="179.5" display="inline" fill="none" stroke="#FF0000" stroke-miterlimit="10" width="56" height="61"/>
	<rect x="-0.5" y="119.5" display="inline" fill="none" stroke="#FF0000" stroke-miterlimit="10" width="56" height="60"/>
	<rect x="-0.5" y="59.5" display="inline" fill="none" stroke="#FF0000" stroke-miterlimit="10" width="56" height="60"/>
	<rect x="-0.5" y="0.5" display="inline" fill="none" stroke="#FF0000" stroke-miterlimit="10" width="56" height="59"/>
	<rect x="55.5" y="540.5" display="inline" fill="none" stroke="#FF0000" stroke-miterlimit="10" width="56" height="60"/>
	<rect x="55.5" y="480.5" display="inline" fill="none" stroke="#FF0000" stroke-miterlimit="10" width="56" height="60"/>
	<rect x="55.5" y="420.5" display="inline" fill="none" stroke="#FF0000" stroke-miterlimit="10" width="56" height="60"/>
	<rect x="55.5" y="360.5" display="inline" fill="none" stroke="#FF0000" stroke-miterlimit="10" width="56" height="60"/>
	<rect x="55.5" y="300.5" display="inline" fill="none" stroke="#FF0000" stroke-miterlimit="10" width="56" height="60"/>
	<rect x="55.5" y="240.5" display="inline" fill="none" stroke="#FF0000" stroke-miterlimit="10" width="56" height="60"/>
	<rect x="55.5" y="179.5" display="inline" fill="none" stroke="#FF0000" stroke-miterlimit="10" width="56" height="61"/>
	<rect x="55.5" y="119.5" display="inline" fill="none" stroke="#FF0000" stroke-miterlimit="10" width="56" height="60"/>
	<rect x="55.5" y="59.5" display="inline" fill="none" stroke="#FF0000" stroke-miterlimit="10" width="56" height="60"/>
	<rect x="55.5" y="0.5" display="inline" fill="none" stroke="#FF0000" stroke-miterlimit="10" width="56" height="59"/>
	<rect x="111.5" y="540.5" display="inline" fill="none" stroke="#FF0000" stroke-miterlimit="10" width="56" height="60"/>
	<rect x="111.5" y="480.5" display="inline" fill="none" stroke="#FF0000" stroke-miterlimit="10" width="56" height="60"/>
	<rect x="111.5" y="420.5" display="inline" fill="none" stroke="#FF0000" stroke-miterlimit="10" width="56" height="60"/>
	<rect x="111.5" y="360.5" display="inline" fill="none" stroke="#FF0000" stroke-miterlimit="10" width="56" height="60"/>
	<rect x="111.5" y="300.5" display="inline" fill="none" stroke="#FF0000" stroke-miterlimit="10" width="56" height="60"/>
	<rect x="111.5" y="240.5" display="inline" fill="none" stroke="#FF0000" stroke-miterlimit="10" width="56" height="60"/>
	<rect x="111.5" y="179.5" display="inline" fill="none" stroke="#FF0000" stroke-miterlimit="10" width="56" height="61"/>
	<rect x="111.5" y="119.5" display="inline" fill="none" stroke="#FF0000" stroke-miterlimit="10" width="56" height="60"/>
	<rect x="111.5" y="59.5" display="inline" fill="none" stroke="#FF0000" stroke-miterlimit="10" width="56" height="60"/>
	<rect x="111.5" y="0.5" display="inline" fill="none" stroke="#FF0000" stroke-miterlimit="10" width="56" height="59"/>
	<rect x="167.5" y="540.5" display="inline" fill="none" stroke="#FF0000" stroke-miterlimit="10" width="56" height="60"/>
	<rect x="167.5" y="480.5" display="inline" fill="none" stroke="#FF0000" stroke-miterlimit="10" width="56" height="60"/>
	<rect x="167.5" y="420.5" display="inline" fill="none" stroke="#FF0000" stroke-miterlimit="10" width="56" height="60"/>
	<rect x="167.5" y="360.5" display="inline" fill="none" stroke="#FF0000" stroke-miterlimit="10" width="56" height="60"/>
	<rect x="167.5" y="300.5" display="inline" fill="none" stroke="#FF0000" stroke-miterlimit="10" width="56" height="60"/>
	<rect x="167.5" y="240.5" display="inline" fill="none" stroke="#FF0000" stroke-miterlimit="10" width="56" height="60"/>
	<rect x="167.5" y="179.5" display="inline" fill="none" stroke="#FF0000" stroke-miterlimit="10" width="56" height="61"/>
	<rect x="167.5" y="119.5" display="inline" fill="none" stroke="#FF0000" stroke-miterlimit="10" width="56" height="60"/>
	<rect x="167.5" y="59.5" display="inline" fill="none" stroke="#FF0000" stroke-miterlimit="10" width="56" height="60"/>
	<rect x="167.5" y="0.5" display="inline" fill="none" stroke="#FF0000" stroke-miterlimit="10" width="56" height="59"/>
	<rect x="223.5" y="540.5" display="inline" fill="none" stroke="#FF0000" stroke-miterlimit="10" width="58" height="60"/>
	<rect x="223.5" y="480.5" display="inline" fill="none" stroke="#FF0000" stroke-miterlimit="10" width="58" height="60"/>
	<rect x="223.5" y="420.5" display="inline" fill="none" stroke="#FF0000" stroke-miterlimit="10" width="58" height="60"/>
	<rect x="223.5" y="360.5" display="inline" fill="none" stroke="#FF0000" stroke-miterlimit="10" width="58" height="60"/>
	<rect x="223.5" y="300.5" display="inline" fill="none" stroke="#FF0000" stroke-miterlimit="10" width="58" height="60"/>
	<rect x="223.5" y="240.5" display="inline" fill="none" stroke="#FF0000" stroke-miterlimit="10" width="58" height="60"/>
	<rect x="223.5" y="179.5" display="inline" fill="none" stroke="#FF0000" stroke-miterlimit="10" width="58" height="61"/>
	<rect x="223.5" y="119.5" display="inline" fill="none" stroke="#FF0000" stroke-miterlimit="10" width="58" height="60"/>
	<rect x="223.5" y="59.5" display="inline" fill="none" stroke="#FF0000" stroke-miterlimit="10" width="58" height="60"/>
	<rect x="223.5" y="0.5" display="inline" fill="none" stroke="#FF0000" stroke-miterlimit="10" width="58" height="59"/>
	<rect x="281.5" y="540.5" display="inline" fill="none" stroke="#FF0000" stroke-miterlimit="10" width="56" height="60"/>
	<rect x="281.5" y="480.5" display="inline" fill="none" stroke="#FF0000" stroke-miterlimit="10" width="56" height="60"/>
	<rect x="281.5" y="420.5" display="inline" fill="none" stroke="#FF0000" stroke-miterlimit="10" width="56" height="60"/>
	<rect x="281.5" y="360.5" display="inline" fill="none" stroke="#FF0000" stroke-miterlimit="10" width="56" height="60"/>
	<rect x="281.5" y="300.5" display="inline" fill="none" stroke="#FF0000" stroke-miterlimit="10" width="56" height="60"/>
	<rect x="281.5" y="240.5" display="inline" fill="none" stroke="#FF0000" stroke-miterlimit="10" width="56" height="60"/>
	<rect x="281.5" y="179.5" display="inline" fill="none" stroke="#FF0000" stroke-miterlimit="10" width="56" height="61"/>
	<rect x="281.5" y="119.5" display="inline" fill="none" stroke="#FF0000" stroke-miterlimit="10" width="56" height="60"/>
	<rect x="281.5" y="59.5" display="inline" fill="none" stroke="#FF0000" stroke-miterlimit="10" width="56" height="60"/>
	<rect x="281.5" y="0.5" display="inline" fill="none" stroke="#FF0000" stroke-miterlimit="10" width="56" height="59"/>
	<rect x="337.5" y="540.5" display="inline" fill="none" stroke="#FF0000" stroke-miterlimit="10" width="56" height="60"/>
	<rect x="337.5" y="480.5" display="inline" fill="none" stroke="#FF0000" stroke-miterlimit="10" width="56" height="60"/>
	<rect x="337.5" y="420.5" display="inline" fill="none" stroke="#FF0000" stroke-miterlimit="10" width="56" height="60"/>
	<rect x="337.5" y="360.5" display="inline" fill="none" stroke="#FF0000" stroke-miterlimit="10" width="56" height="60"/>
	<rect x="337.5" y="300.5" display="inline" fill="none" stroke="#FF0000" stroke-miterlimit="10" width="56" height="60"/>
	<rect x="337.5" y="240.5" display="inline" fill="none" stroke="#FF0000" stroke-miterlimit="10" width="56" height="60"/>
	<rect x="337.5" y="179.5" display="inline" fill="none" stroke="#FF0000" stroke-miterlimit="10" width="56" height="61"/>
	<rect x="337.5" y="119.5" display="inline" fill="none" stroke="#FF0000" stroke-miterlimit="10" width="56" height="60"/>
	<rect x="337.5" y="59.5" display="inline" fill="none" stroke="#FF0000" stroke-miterlimit="10" width="56" height="60"/>
	<rect x="337.5" y="0.5" display="inline" fill="none" stroke="#FF0000" stroke-miterlimit="10" width="56" height="59"/>
	<rect x="393.5" y="540.5" display="inline" fill="none" stroke="#FF0000" stroke-miterlimit="10" width="56" height="60"/>
	<rect x="393.5" y="480.5" display="inline" fill="none" stroke="#FF0000" stroke-miterlimit="10" width="56" height="60"/>
	<rect x="393.5" y="420.5" display="inline" fill="none" stroke="#FF0000" stroke-miterlimit="10" width="56" height="60"/>
	<rect x="393.5" y="360.5" display="inline" fill="none" stroke="#FF0000" stroke-miterlimit="10" width="56" height="60"/>
	<rect x="393.5" y="300.5" display="inline" fill="none" stroke="#FF0000" stroke-miterlimit="10" width="56" height="60"/>
	<rect x="393.5" y="240.5" display="inline" fill="none" stroke="#FF0000" stroke-miterlimit="10" width="56" height="60"/>
	<rect x="393.5" y="179.5" display="inline" fill="none" stroke="#FF0000" stroke-miterlimit="10" width="56" height="61"/>
	<rect x="393.5" y="119.5" display="inline" fill="none" stroke="#FF0000" stroke-miterlimit="10" width="56" height="60"/>
	<rect x="393.5" y="59.5" display="inline" fill="none" stroke="#FF0000" stroke-miterlimit="10" width="56" height="60"/>
	<rect x="393.5" y="0.5" display="inline" fill="none" stroke="#FF0000" stroke-miterlimit="10" width="56" height="59"/>
	<rect x="449.5" y="540.5" display="inline" fill="none" stroke="#FF0000" stroke-miterlimit="10" width="56" height="60"/>
	<rect x="449.5" y="480.5" display="inline" fill="none" stroke="#FF0000" stroke-miterlimit="10" width="56" height="60"/>
	<rect x="449.5" y="420.5" display="inline" fill="none" stroke="#FF0000" stroke-miterlimit="10" width="56" height="60"/>
	<rect x="449.5" y="360.5" display="inline" fill="none" stroke="#FF0000" stroke-miterlimit="10" width="56" height="60"/>
	<rect x="449.5" y="300.5" display="inline" fill="none" stroke="#FF0000" stroke-miterlimit="10" width="56" height="60"/>
	<rect x="449.5" y="240.5" display="inline" fill="none" stroke="#FF0000" stroke-miterlimit="10" width="56" height="60"/>
	<rect x="449.5" y="179.5" display="inline" fill="none" stroke="#FF0000" stroke-miterlimit="10" width="56" height="61"/>
	<rect x="449.5" y="119.5" display="inline" fill="none" stroke="#FF0000" stroke-miterlimit="10" width="56" height="60"/>
	<rect x="449.5" y="59.5" display="inline" fill="none" stroke="#FF0000" stroke-miterlimit="10" width="56" height="60"/>
	<rect x="449.5" y="0.5" display="inline" fill="none" stroke="#FF0000" stroke-miterlimit="10" width="56" height="59"/>
	<rect x="505.5" y="540.5" display="inline" fill="none" stroke="#FF0000" stroke-miterlimit="10" width="56" height="60"/>
	<rect x="505.5" y="480.5" display="inline" fill="none" stroke="#FF0000" stroke-miterlimit="10" width="56" height="60"/>
	<rect x="505.5" y="420.5" display="inline" fill="none" stroke="#FF0000" stroke-miterlimit="10" width="56" height="60"/>
	<rect x="505.5" y="360.5" display="inline" fill="none" stroke="#FF0000" stroke-miterlimit="10" width="56" height="60"/>
	<rect x="505.5" y="300.5" display="inline" fill="none" stroke="#FF0000" stroke-miterlimit="10" width="56" height="60"/>
	<rect x="505.5" y="240.5" display="inline" fill="none" stroke="#FF0000" stroke-miterlimit="10" width="56" height="60"/>
	<rect x="505.5" y="179.5" display="inline" fill="none" stroke="#FF0000" stroke-miterlimit="10" width="56" height="61"/>
	<rect x="505.5" y="119.5" display="inline" fill="none" stroke="#FF0000" stroke-miterlimit="10" width="56" height="60"/>
	<rect x="505.5" y="59.5" display="inline" fill="none" stroke="#FF0000" stroke-miterlimit="10" width="56" height="60"/>
	<rect x="505.5" y="0.5" display="inline" fill="none" stroke="#FF0000" stroke-miterlimit="10" width="56" height="59"/>
	<rect x="561.5" y="540.5" display="inline" fill="none" stroke="#FF0000" stroke-miterlimit="10" width="56" height="60"/>
	<rect x="561.5" y="480.5" display="inline" fill="none" stroke="#FF0000" stroke-miterlimit="10" width="56" height="60"/>
	<rect x="561.5" y="420.5" display="inline" fill="none" stroke="#FF0000" stroke-miterlimit="10" width="56" height="60"/>
	<rect x="561.5" y="360.5" display="inline" fill="none" stroke="#FF0000" stroke-miterlimit="10" width="56" height="60"/>
	<rect x="561.5" y="300.5" display="inline" fill="none" stroke="#FF0000" stroke-miterlimit="10" width="56" height="60"/>
	<rect x="561.5" y="240.5" display="inline" fill="none" stroke="#FF0000" stroke-miterlimit="10" width="56" height="60"/>
	<rect x="561.5" y="179.5" display="inline" fill="none" stroke="#FF0000" stroke-miterlimit="10" width="56" height="61"/>
	<rect x="561.5" y="119.5" display="inline" fill="none" stroke="#FF0000" stroke-miterlimit="10" width="56" height="60"/>
	<rect x="561.5" y="59.5" display="inline" fill="none" stroke="#FF0000" stroke-miterlimit="10" width="56" height="60"/>
	<rect x="561.5" y="0.5" display="inline" fill="none" stroke="#FF0000" stroke-miterlimit="10" width="56" height="59"/>
	<rect x="617.5" y="540.5" display="inline" fill="none" stroke="#FF0000" stroke-miterlimit="10" width="58" height="60"/>
	<rect x="617.5" y="480.5" display="inline" fill="none" stroke="#FF0000" stroke-miterlimit="10" width="58" height="60"/>
	<rect x="617.5" y="420.5" display="inline" fill="none" stroke="#FF0000" stroke-miterlimit="10" width="58" height="60"/>
	<rect x="617.5" y="360.5" display="inline" fill="none" stroke="#FF0000" stroke-miterlimit="10" width="58" height="60"/>
	<rect x="617.5" y="300.5" display="inline" fill="none" stroke="#FF0000" stroke-miterlimit="10" width="58" height="60"/>
	<rect x="617.5" y="240.5" display="inline" fill="none" stroke="#FF0000" stroke-miterlimit="10" width="58" height="60"/>
	<rect x="617.5" y="179.5" display="inline" fill="none" stroke="#FF0000" stroke-miterlimit="10" width="58" height="61"/>
	<rect x="617.5" y="119.5" display="inline" fill="none" stroke="#FF0000" stroke-miterlimit="10" width="58" height="60"/>
	<rect x="617.5" y="59.5" display="inline" fill="none" stroke="#FF0000" stroke-miterlimit="10" width="58" height="60"/>
	<rect x="617.5" y="0.5" display="inline" fill="none" stroke="#FF0000" stroke-miterlimit="10" width="58" height="59"/>
	<rect x="675.5" y="540.5" display="inline" fill="none" stroke="#FF0000" stroke-miterlimit="10" width="56" height="60"/>
	<rect x="675.5" y="480.5" display="inline" fill="none" stroke="#FF0000" stroke-miterlimit="10" width="56" height="60"/>
	<rect x="675.5" y="420.5" display="inline" fill="none" stroke="#FF0000" stroke-miterlimit="10" width="56" height="60"/>
	<rect x="675.5" y="360.5" display="inline" fill="none" stroke="#FF0000" stroke-miterlimit="10" width="56" height="60"/>
	<rect x="675.5" y="300.5" display="inline" fill="none" stroke="#FF0000" stroke-miterlimit="10" width="56" height="60"/>
	<rect x="675.5" y="240.5" display="inline" fill="none" stroke="#FF0000" stroke-miterlimit="10" width="56" height="60"/>
	<rect x="675.5" y="179.5" display="inline" fill="none" stroke="#FF0000" stroke-miterlimit="10" width="56" height="61"/>
	<rect x="675.5" y="119.5" display="inline" fill="none" stroke="#FF0000" stroke-miterlimit="10" width="56" height="60"/>
	<rect x="675.5" y="59.5" display="inline" fill="none" stroke="#FF0000" stroke-miterlimit="10" width="56" height="60"/>
	<rect x="675.5" y="0.5" display="inline" fill="none" stroke="#FF0000" stroke-miterlimit="10" width="56" height="59"/>
	<rect x="731.5" y="540.5" display="inline" fill="none" stroke="#FF0000" stroke-miterlimit="10" width="56" height="60"/>
	<rect x="731.5" y="480.5" display="inline" fill="none" stroke="#FF0000" stroke-miterlimit="10" width="56" height="60"/>
	<rect x="731.5" y="420.5" display="inline" fill="none" stroke="#FF0000" stroke-miterlimit="10" width="56" height="60"/>
	<rect x="731.5" y="360.5" display="inline" fill="none" stroke="#FF0000" stroke-miterlimit="10" width="56" height="60"/>
	<rect x="731.5" y="300.5" display="inline" fill="none" stroke="#FF0000" stroke-miterlimit="10" width="56" height="60"/>
	<rect x="731.5" y="240.5" display="inline" fill="none" stroke="#FF0000" stroke-miterlimit="10" width="56" height="60"/>
	<rect x="731.5" y="179.5" display="inline" fill="none" stroke="#FF0000" stroke-miterlimit="10" width="56" height="61"/>
	<rect x="731.5" y="119.5" display="inline" fill="none" stroke="#FF0000" stroke-miterlimit="10" width="56" height="60"/>
	<rect x="731.5" y="59.5" display="inline" fill="none" stroke="#FF0000" stroke-miterlimit="10" width="56" height="60"/>
	<rect x="731.5" y="0.5" display="inline" fill="none" stroke="#FF0000" stroke-miterlimit="10" width="56" height="59"/>
	<rect x="787.5" y="540.5" display="inline" fill="none" stroke="#FF0000" stroke-miterlimit="10" width="56" height="60"/>
	<rect x="787.5" y="480.5" display="inline" fill="none" stroke="#FF0000" stroke-miterlimit="10" width="56" height="60"/>
	<rect x="787.5" y="420.5" display="inline" fill="none" stroke="#FF0000" stroke-miterlimit="10" width="56" height="60"/>
	<rect x="787.5" y="360.5" display="inline" fill="none" stroke="#FF0000" stroke-miterlimit="10" width="56" height="60"/>
	<rect x="787.5" y="300.5" display="inline" fill="none" stroke="#FF0000" stroke-miterlimit="10" width="56" height="60"/>
	<rect x="787.5" y="240.5" display="inline" fill="none" stroke="#FF0000" stroke-miterlimit="10" width="56" height="60"/>
	<rect x="787.5" y="179.5" display="inline" fill="none" stroke="#FF0000" stroke-miterlimit="10" width="56" height="61"/>
	<rect x="787.5" y="119.5" display="inline" fill="none" stroke="#FF0000" stroke-miterlimit="10" width="56" height="60"/>
	<rect x="787.5" y="59.5" display="inline" fill="none" stroke="#FF0000" stroke-miterlimit="10" width="56" height="60"/>
	<rect x="787.5" y="0.5" display="inline" fill="none" stroke="#FF0000" stroke-miterlimit="10" width="56" height="59"/>
	<rect x="843.5" y="540.5" display="inline" fill="none" stroke="#FF0000" stroke-miterlimit="10" width="56" height="60"/>
	<rect x="843.5" y="480.5" display="inline" fill="none" stroke="#FF0000" stroke-miterlimit="10" width="56" height="60"/>
	<rect x="843.5" y="420.5" display="inline" fill="none" stroke="#FF0000" stroke-miterlimit="10" width="56" height="60"/>
	<rect x="843.5" y="360.5" display="inline" fill="none" stroke="#FF0000" stroke-miterlimit="10" width="56" height="60"/>
	<rect x="843.5" y="300.5" display="inline" fill="none" stroke="#FF0000" stroke-miterlimit="10" width="56" height="60"/>
	<rect x="843.5" y="240.5" display="inline" fill="none" stroke="#FF0000" stroke-miterlimit="10" width="56" height="60"/>
	<rect x="843.5" y="179.5" display="inline" fill="none" stroke="#FF0000" stroke-miterlimit="10" width="56" height="61"/>
	<rect x="843.5" y="119.5" display="inline" fill="none" stroke="#FF0000" stroke-miterlimit="10" width="56" height="60"/>
	<rect x="843.5" y="59.5" display="inline" fill="none" stroke="#FF0000" stroke-miterlimit="10" width="56" height="60"/>
	<rect x="843.5" y="0.5" display="inline" fill="none" stroke="#FF0000" stroke-miterlimit="10" width="56" height="59"/>
	<rect x="-0.5" y="480.5" display="inline" fill="none" stroke="#FF0000" stroke-miterlimit="10" width="56" height="60"/>
</g>
</svg>
