<?xml version="1.0" encoding="utf-8"?>
<!-- Generator: Adobe Illustrator 15.1.0, SVG Export Plug-In  -->
<!DOCTYPE svg PUBLIC "-//W3C//DTD SVG 1.0//EN" "http://www.w3.org/TR/2001/REC-SVG-20010904/DTD/svg10.dtd" [
	<!ENTITY ns_flows "http://ns.adobe.com/Flows/1.0/">
]>
<svg version="1.0"
	 xmlns="http://www.w3.org/2000/svg" xmlns:xlink="http://www.w3.org/1999/xlink" xmlns:a="http://ns.adobe.com/AdobeSVGViewerExtensions/3.0/"
	 x="0px" y="0px" width="640px" height="960px" viewBox="0 0 640 960" overflow="visible" enable-background="new 0 0 640 960"
	 xml:space="preserve">
<defs>
</defs>
<g>
	<path d="M0,943c0,9.389,7.611,17,17,17h606c9.389,0,17-7.611,17-17V17c0-9.389-7.611-17-17-17H17C7.611,0,0,7.611,0,17V943z"/>
</g>
<g>
	<path fill="#0000FF" d="M453,157c0,9.389,7.611,17,17,17h85c9.389,0,17-7.611,17-17V85c0-9.389-7.611-17-17-17h-85
		c-9.389,0-17,7.611-17,17V157z"/>
	<path fill="none" stroke="#FFFFFF" stroke-width="4" stroke-miterlimit="10" d="M453,157c0,9.389,7.611,17,17,17h85
		c9.389,0,17-7.611,17-17V85c0-9.389-7.611-17-17-17h-85c-9.389,0-17,7.611-17,17V157z"/>
</g>
<g>
	<path fill="#0000FF" d="M66,157c0,9.389,7.611,17,17,17h279c9.389,0,17-7.611,17-17V85c0-9.389-7.611-17-17-17H83
		c-9.389,0-17,7.611-17,17V157z"/>
	<path fill="none" stroke="#FFFFFF" stroke-width="4" stroke-miterlimit="10" d="M66,157c0,9.389,7.611,17,17,17h279
		c9.389,0,17-7.611,17-17V85c0-9.389-7.611-17-17-17H83c-9.389,0-17,7.611-17,17V157z"/>
</g>
<g>
	<path fill="#0000FF" d="M66,337c0,9.389,7.611,17,17,17h85c9.389,0,17-7.611,17-17v-72c0-9.389-7.611-17-17-17H83
		c-9.389,0-17,7.611-17,17V337z"/>
	<path fill="none" stroke="#FFFFFF" stroke-width="4" stroke-miterlimit="10" d="M66,337c0,9.389,7.611,17,17,17h85
		c9.389,0,17-7.611,17-17v-72c0-9.389-7.611-17-17-17H83c-9.389,0-17,7.611-17,17V337z"/>
</g>
<g>
	<path fill="#0000FF" d="M453,517c0,9.389,7.611,17,17,17h85c9.389,0,17-7.611,17-17v-72c0-9.389-7.611-17-17-17h-85
		c-9.389,0-17,7.611-17,17V517z"/>
	<path fill="none" stroke="#FFFFFF" stroke-width="4" stroke-miterlimit="10" d="M453,517c0,9.389,7.611,17,17,17h85
		c9.389,0,17-7.611,17-17v-72c0-9.389-7.611-17-17-17h-85c-9.389,0-17,7.611-17,17V517z"/>
</g>
<g>
	<path fill="#0000FF" d="M66,517c0,9.389,7.611,17,17,17h85c9.389,0,17-7.611,17-17v-72c0-9.389-7.611-17-17-17H83
		c-9.389,0-17,7.611-17,17V517z"/>
	<path fill="none" stroke="#FFFFFF" stroke-width="4" stroke-miterlimit="10" d="M66,517c0,9.389,7.611,17,17,17h85
		c9.389,0,17-7.611,17-17v-72c0-9.389-7.611-17-17-17H83c-9.389,0-17,7.611-17,17V517z"/>
</g>
<g>
	<path fill="#0000FF" d="M453,697c0,9.389,7.611,17,17,17h85c9.389,0,17-7.611,17-17v-72c0-9.389-7.611-17-17-17h-85
		c-9.389,0-17,7.611-17,17V697z"/>
	<path fill="none" stroke="#FFFFFF" stroke-width="4" stroke-miterlimit="10" d="M453,697c0,9.389,7.611,17,17,17h85
		c9.389,0,17-7.611,17-17v-72c0-9.389-7.611-17-17-17h-85c-9.389,0-17,7.611-17,17V697z"/>
</g>
<g>
	<path fill="#0000FF" d="M453,877c0,9.389,7.611,17,17,17h85c9.389,0,17-7.611,17-17v-72c0-9.389-7.611-17-17-17h-85
		c-9.389,0-17,7.611-17,17V877z"/>
	<path fill="none" stroke="#FFFFFF" stroke-width="4" stroke-miterlimit="10" d="M453,877c0,9.389,7.611,17,17,17h85
		c9.389,0,17-7.611,17-17v-72c0-9.389-7.611-17-17-17h-85c-9.389,0-17,7.611-17,17V877z"/>
</g>
<g>
	<path fill="#0000FF" d="M259,877c0,9.389,7.611,17,17,17h86c9.389,0,17-7.611,17-17v-72c0-9.389-7.611-17-17-17h-86
		c-9.389,0-17,7.611-17,17V877z"/>
	<path fill="none" stroke="#FFFFFF" stroke-width="4" stroke-miterlimit="10" d="M259,877c0,9.389,7.611,17,17,17h86
		c9.389,0,17-7.611,17-17v-72c0-9.389-7.611-17-17-17h-86c-9.389,0-17,7.611-17,17V877z"/>
</g>
<g>
	<path fill="#0000FF" d="M259,337c0,9.389,7.611,17,17,17h279c9.389,0,17-7.611,17-17v-72c0-9.389-7.611-17-17-17H276
		c-9.389,0-17,7.611-17,17V337z"/>
	<path fill="none" stroke="#FFFFFF" stroke-width="4" stroke-miterlimit="10" d="M259,337c0,9.389,7.611,17,17,17h279
		c9.389,0,17-7.611,17-17v-72c0-9.389-7.611-17-17-17H276c-9.389,0-17,7.611-17,17V337z"/>
</g>
<g>
	<path fill="#0000FF" d="M259,697c0,9.389,7.611,17,17,17h86c9.389,0,17-7.611,17-17V445c0-9.389-7.611-17-17-17h-86
		c-9.389,0-17,7.611-17,17V697z"/>
	<path fill="none" stroke="#FFFFFF" stroke-width="4" stroke-miterlimit="10" d="M259,697c0,9.389,7.611,17,17,17h86
		c9.389,0,17-7.611,17-17V445c0-9.389-7.611-17-17-17h-86c-9.389,0-17,7.611-17,17V697z"/>
</g>
<g>
	<path fill="#0000FF" d="M66,877c0,9.389,7.611,17,17,17h85c9.389,0,17-7.611,17-17V625c0-9.389-7.611-17-17-17H83
		c-9.389,0-17,7.611-17,17V877z"/>
	<path fill="none" stroke="#FFFFFF" stroke-width="4" stroke-miterlimit="10" d="M66,877c0,9.389,7.611,17,17,17h85
		c9.389,0,17-7.611,17-17V625c0-9.389-7.611-17-17-17H83c-9.389,0-17,7.611-17,17V877z"/>
</g>
</svg>
