<?xml version="1.0" encoding="utf-8"?>
<!-- Generator: Adobe Illustrator 15.1.0, SVG Export Plug-In . SVG Version: 6.00 Build 0)  -->
<svg version="1.2" baseProfile="tiny" id="Layer_1" xmlns="http://www.w3.org/2000/svg" xmlns:xlink="http://www.w3.org/1999/xlink"
	 x="0px" y="0px" width="39.763px" height="50px" viewBox="0 0 39.763 50" overflow="inherit" xml:space="preserve">
<path fill="#FFA4FF" d="M39.763,44.832c-0.473-8.126-0.943-16.252-1.414-24.379c0.023-0.624,0.018-1.249-0.019-1.875
	C37.664,8.705,29.407,0.233,19.971,0C10.536,0.231,2.279,8.71,1.614,18.595c-0.001,0.032-0.002,0.062-0.004,0.093
	c-0.03-0.007-0.06-0.013-0.09-0.019C1.013,27.376,0.507,36.083,0,44.79l0.552,0.357c0.693,0.313,0.637,1.132,1.34,1.412
	c0.708,0.28,1.801-0.493,2.518-0.248c0.719,0.247,1.109,1.528,1.837,1.74c0.729,0.211,1.746-0.661,2.483-0.482
	c0.738,0.177,1.248,1.415,1.992,1.559c0.746,0.143,1.676-0.82,2.427-0.713c0.751,0.107,1.375,1.292,2.13,1.363
	c0.756,0.072,1.592-0.974,2.35-0.938S19.117,50,19.876,50c0.758,0.001,1.492-1.118,2.251-1.153c0.758-0.035,1.591,1.013,2.347,0.943
	c0.755-0.071,1.381-1.256,2.133-1.361c0.751-0.105,1.679,0.859,2.425,0.719c0.745-0.141,1.257-1.379,1.996-1.555
	c0.737-0.175,1.751,0.698,2.48,0.487c0.729-0.21,1.122-1.49,1.842-1.735c0.716-0.243,1.81,0.531,2.517,0.252
	c0.704-0.276,0.649-1.1,1.345-1.41L39.763,44.832z"/>
<g>
	<path fill="#FFFFFF" d="M19.058,18.482c0.729,3.469-2.626,7.091-7.545,7.091c-4.917,0-8.273-3.622-7.545-7.091
		c0.722-3.492,4.085-5.763,7.545-5.785C14.973,12.72,18.335,14.991,19.058,18.482z"/>
	<path fill="#FFFFFF" d="M35.98,18.482c0.729,3.469-2.626,7.091-7.544,7.091c-4.919,0-8.274-3.622-7.545-7.091
		c0.722-3.492,4.084-5.763,7.545-5.785C31.896,12.72,35.258,14.991,35.98,18.482z"/>
</g>
<circle fill="#0000FF" cx="7.742" cy="19.59" r="2.943"/>
<circle fill="#0000FF" cx="25.033" cy="19.59" r="2.943"/>
</svg>
