<?xml version="1.0" encoding="utf-8"?>
<!-- Generator: Adobe Illustrator 15.1.0, SVG Export Plug-In . SVG Version: 6.00 Build 0)  -->
<!DOCTYPE svg PUBLIC "-//W3C//DTD SVG 1.1//EN" "http://www.w3.org/Graphics/SVG/1.1/DTD/svg11.dtd">
<svg version="1.1" id="Layer_1" xmlns="http://www.w3.org/2000/svg" xmlns:xlink="http://www.w3.org/1999/xlink" x="0px" y="0px"
	 width="640px" height="960px" viewBox="0 0 640 960" enable-background="new 0 0 640 960" xml:space="preserve">
<path fill="#FF4C3F" d="M329.668,458h-18.001L302,465.5v18l1.084,18l8.791-9l8.897,9l8.613-9l8.614,9v-36L329.668,458z
	 M314.667,472.1c-1.988,0-3.6-1.612-3.6-3.6s1.611-3.6,3.6-3.6s3.6,1.612,3.6,3.6S316.655,472.1,314.667,472.1z M326.667,472.1
	c-1.988,0-3.6-1.612-3.6-3.6s1.611-3.6,3.6-3.6s3.601,1.612,3.601,3.6S328.655,472.1,326.667,472.1z"/>
</svg>
